# Blender 3.6.0
# www.blender.org
mtllib boat.mtl
o tetrahedron
v -10.317111 -0.000001 -17.869761
v -10.317111 0.000001 17.869761
v 20.634222 0.000000 0.000000
v 0.000000 29.181194 -0.000002
vn -0.0000 -1.0000 -0.0000
vn 0.4714 0.3333 0.8165
vn 0.4714 0.3333 -0.8165
vn -0.9428 0.3333 -0.0000
vt 0.497913 0.017905
vt 0.742471 0.441490
vt 0.253356 0.441490
vt 0.987027 0.865076
vt 0.497913 0.865075
vt 0.008800 0.865076
s 0
usemtl Material.001
f 3/1/1 2/2/1 1/3/1
f 3/4/2 4/5/2 2/2/2
f 4/5/3 3/6/3 1/3/3
f 2/2/4 4/5/4 1/3/4
