# Blender 3.3.1
# www.blender.org
o icosahedron
v 0.000000 -0.000000 0.235114
v 0.210292 -0.000000 0.105146
v 0.064984 0.200000 0.105146
v -0.170130 0.123607 0.105146
v -0.170130 -0.123607 0.105146
v 0.064984 -0.200000 0.105146
v 0.170130 0.123607 -0.105146
v 0.170130 -0.123607 -0.105146
v -0.064984 0.200000 -0.105146
v -0.210292 0.000000 -0.105146
v -0.064984 -0.200000 -0.105146
v 0.000000 0.000000 -0.235114
vn 0.4911 0.3568 0.7947
vn -0.1876 0.5774 0.7947
vn -0.6071 -0.0000 0.7947
vn -0.1876 -0.5774 0.7947
vn 0.4911 -0.3568 0.7947
vn 0.7947 -0.5774 0.1876
vn 0.9822 -0.0000 -0.1876
vn 0.7947 0.5774 0.1876
vn 0.3035 0.9342 -0.1876
vn -0.3035 0.9342 0.1876
vn -0.7947 0.5774 -0.1876
vn -0.9822 -0.0000 0.1876
vn -0.7947 -0.5774 -0.1876
vn -0.3035 -0.9342 0.1876
vn 0.3035 -0.9342 -0.1876
vn 0.6071 -0.0000 -0.7947
vn 0.1876 0.5774 -0.7947
vn 0.1876 -0.5774 -0.7947
vn -0.4911 0.3568 -0.7947
vn -0.4911 -0.3568 -0.7947
s 0
f 1//1 2//1 3//1
f 1//2 3//2 4//2
f 1//3 4//3 5//3
f 1//4 5//4 6//4
f 1//5 6//5 2//5
f 2//6 6//6 8//6
f 2//7 8//7 7//7
f 2//8 7//8 3//8
f 3//9 7//9 9//9
f 3//10 9//10 4//10
f 4//11 9//11 10//11
f 4//12 10//12 5//12
f 5//13 10//13 11//13
f 5//14 11//14 6//14
f 6//15 11//15 8//15
f 7//16 8//16 12//16
f 7//17 12//17 9//17
f 8//18 11//18 12//18
f 9//19 12//19 10//19
f 10//20 12//20 11//20
