# Blender 3.3.1
# www.blender.org
o dodecahedron.001
v 1.753992 0.206425 0.000000
v 1.954253 0.317865 0.000000
v 1.747828 0.071858 -0.185410
v 1.747828 0.071858 0.185410
v 2.071857 0.252171 -0.185410
v 2.071857 0.252171 0.185410
v 1.737855 -0.145877 -0.114590
v 1.944279 0.100130 -0.300000
v 1.944279 0.100130 0.300000
v 1.737855 -0.145877 0.114590
v 2.262144 0.145877 -0.114590
v 2.262144 0.145877 0.114590
v 1.928142 -0.252171 -0.185410
v 2.055719 -0.100130 -0.300000
v 2.055719 -0.100130 0.300000
v 1.928142 -0.252171 0.185410
v 2.252171 -0.071857 -0.185410
v 2.252171 -0.071857 0.185410
v 2.045746 -0.317865 -0.000000
v 2.246007 -0.206425 -0.000000
vn -0.4136 0.7433 -0.5257
vn -0.9990 0.0458 -0.0000
vn -0.4136 0.7433 0.5257
vn 0.4877 0.8730 -0.0000
vn -0.4594 -0.2556 -0.8507
vn -0.4594 -0.2556 0.8507
vn 0.4594 0.2556 -0.8507
vn 0.4594 0.2556 0.8507
vn -0.4877 -0.8730 -0.0000
vn 0.9990 -0.0458 -0.0000
vn 0.4136 -0.7433 -0.5257
vn 0.4136 -0.7433 0.5257
vn -0.4594 -0.2556 -0.8506
vn -0.4594 -0.2556 0.8506
s 0
f 2//1 8//1 3//1
f 3//2 10//2 4//2
f 4//3 6//3 2//3
f 6//4 11//4 5//4
f 8//5 13//5 7//5
f 10//6 15//6 9//6
f 11//7 14//7 8//7
f 9//8 18//8 12//8
f 13//9 16//9 10//9
f 12//10 20//10 17//10
f 14//11 20//11 19//11
f 16//12 20//12 18//12
f 3//1 1//1 2//1
f 2//1 5//1 8//1
f 4//2 1//2 3//2
f 3//2 7//2 10//2
f 2//3 1//3 4//3
f 4//3 9//3 6//3
f 5//4 2//4 6//4
f 6//4 12//4 11//4
f 7//13 3//13 8//13
f 8//13 14//13 13//13
f 9//14 4//14 10//14
f 10//6 16//6 15//6
f 8//7 5//7 11//7
f 11//7 17//7 14//7
f 12//8 6//8 9//8
f 9//8 15//8 18//8
f 10//9 7//9 13//9
f 13//9 19//9 16//9
f 17//10 11//10 12//10
f 12//10 18//10 20//10
f 19//11 13//11 14//11
f 14//11 17//11 20//11
f 18//12 15//12 16//12
f 16//12 19//12 20//12
