# Blender 3.3.1
# www.blender.org
o Octahedron
v 0.000000 2.000000 0.000000
v 0.000000 0.000000 2.000000
v 2.000000 0.000000 0.000000
v -2.000000 0.000000 0.000000
v 0.000000 -2.000000 0.000000
v 0.000000 0.000000 -2.000000
vn 0.5774 0.5774 0.5774
vn -0.5774 0.5774 0.5774
vn 0.5774 -0.5774 0.5774
vn -0.5774 -0.5774 0.5774
vn 0.5774 0.5774 -0.5774
vn -0.5774 0.5774 -0.5774
vn 0.5774 -0.5774 -0.5774
vn -0.5774 -0.5774 -0.5774
s 0
f 1//1 2//1 3//1
f 4//2 2//2 1//2
f 3//3 2//3 5//3
f 5//4 2//4 4//4
f 3//5 6//5 1//5
f 1//6 6//6 4//6
f 5//7 6//7 3//7
f 4//8 6//8 5//8
